<svg width="33" height="33" viewBox="0 0 33 33" fill="none" xmlns="http://www.w3.org/2000/svg">
<g clip-path="url(#clip0_2418_6559)">
<rect width="33" height="33" fill="#1F1D2B"/>
<path d="M22.3 5H9.7C8.2114 5 7 6.20432 7 7.68421V10.2172C7 11.1594 7.3438 12.0156 7.9 12.6742V21.1053C7.9 21.3426 7.99482 21.5701 8.1636 21.7379C8.33239 21.9057 8.56131 22 8.8 22H16C16.2387 22 16.4676 21.9057 16.6364 21.7379C16.8052 21.5701 16.9 21.3426 16.9 21.1053V16.6316H20.5V21.1053C20.5 21.3426 20.5948 21.5701 20.7636 21.7379C20.9324 21.9057 21.1613 22 21.4 22H23.2C23.4387 22 23.6676 21.9057 23.8364 21.7379C24.0052 21.5701 24.1 21.3426 24.1 21.1053V12.6733C24.6562 12.0156 25 11.1594 25 10.2163V7.68421C25 6.20432 23.7886 5 22.3 5ZM23.2 7.68421V10.2172C23.2 11.2372 22.4359 12.1069 21.4981 12.1561L21.4 12.1579C20.4073 12.1579 19.6 11.3553 19.6 10.3684V6.78947H22.3C22.7968 6.78947 23.2 7.19121 23.2 7.68421ZM14.2 10.3684V6.78947H17.8V10.3684C17.8 11.3553 16.9927 12.1579 16 12.1579C15.0073 12.1579 14.2 11.3553 14.2 10.3684ZM8.8 7.68421C8.8 7.19121 9.2032 6.78947 9.7 6.78947H12.4V10.3684C12.4 11.3553 11.5927 12.1579 10.6 12.1579L10.5019 12.1552C9.5641 12.1069 8.8 11.2372 8.8 10.2172V7.68421ZM14.2 17.5263H10.6V14.8421H14.2V17.5263Z" fill="white"/>
<path d="M7.38352 28V27.6165L9.7358 24.1051H7.35795V23.6364H10.3665V24.0199L8.0142 27.5312H10.392V28H7.38352ZM12.845 25.5838V26.0526H10.9359V25.5838H12.845ZM13.7979 28V23.6364H15.2724C15.6147 23.6364 15.8945 23.6982 16.1119 23.8217C16.3306 23.9439 16.4925 24.1094 16.5977 24.3182C16.7028 24.527 16.7553 24.7599 16.7553 25.017C16.7553 25.2741 16.7028 25.5078 16.5977 25.718C16.494 25.9283 16.3335 26.0959 16.1161 26.2209C15.8988 26.3445 15.6204 26.4062 15.2809 26.4062H14.2241V25.9375H15.2638C15.4982 25.9375 15.6864 25.897 15.8285 25.8161C15.9705 25.7351 16.0735 25.6257 16.1374 25.4879C16.2028 25.3487 16.2354 25.1918 16.2354 25.017C16.2354 24.8423 16.2028 24.6861 16.1374 24.5483C16.0735 24.4105 15.9698 24.3026 15.8263 24.2244C15.6829 24.1449 15.4925 24.1051 15.2553 24.1051H14.3263V28H13.7979ZM21.2884 25.8182C21.2884 26.2784 21.2053 26.6761 21.0391 27.0114C20.8729 27.3466 20.6449 27.6051 20.3551 27.7869C20.0653 27.9688 19.7344 28.0597 19.3622 28.0597C18.9901 28.0597 18.6591 27.9688 18.3693 27.7869C18.0795 27.6051 17.8516 27.3466 17.6854 27.0114C17.5192 26.6761 17.4361 26.2784 17.4361 25.8182C17.4361 25.358 17.5192 24.9602 17.6854 24.625C17.8516 24.2898 18.0795 24.0312 18.3693 23.8494C18.6591 23.6676 18.9901 23.5767 19.3622 23.5767C19.7344 23.5767 20.0653 23.6676 20.3551 23.8494C20.6449 24.0312 20.8729 24.2898 21.0391 24.625C21.2053 24.9602 21.2884 25.358 21.2884 25.8182ZM20.777 25.8182C20.777 25.4403 20.7138 25.1214 20.5874 24.8615C20.4624 24.6016 20.2926 24.4048 20.0781 24.2713C19.8651 24.1378 19.6264 24.071 19.3622 24.071C19.098 24.071 18.8587 24.1378 18.6442 24.2713C18.4311 24.4048 18.2614 24.6016 18.1349 24.8615C18.0099 25.1214 17.9474 25.4403 17.9474 25.8182C17.9474 26.196 18.0099 26.5149 18.1349 26.7749C18.2614 27.0348 18.4311 27.2315 18.6442 27.3651C18.8587 27.4986 19.098 27.5653 19.3622 27.5653C19.6264 27.5653 19.8651 27.4986 20.0781 27.3651C20.2926 27.2315 20.4624 27.0348 20.5874 26.7749C20.7138 26.5149 20.777 26.196 20.777 25.8182ZM24.5632 24.7273C24.5376 24.5114 24.4339 24.3438 24.2521 24.2244C24.0703 24.1051 23.8473 24.0455 23.5831 24.0455C23.3899 24.0455 23.2209 24.0767 23.076 24.1392C22.9325 24.2017 22.8203 24.2876 22.7393 24.397C22.6598 24.5064 22.62 24.6307 22.62 24.7699C22.62 24.8864 22.6477 24.9865 22.7031 25.0703C22.7599 25.1527 22.8324 25.2216 22.9205 25.277C23.0085 25.331 23.1009 25.3757 23.1974 25.4112C23.294 25.4453 23.3828 25.473 23.4638 25.4943L23.907 25.6136C24.0206 25.6435 24.147 25.6847 24.2862 25.7372C24.4268 25.7898 24.5611 25.8615 24.6889 25.9524C24.8182 26.0419 24.9247 26.157 25.0085 26.2976C25.0923 26.4382 25.1342 26.6108 25.1342 26.8153C25.1342 27.0511 25.0724 27.2642 24.9489 27.4545C24.8267 27.6449 24.6477 27.7962 24.4119 27.9084C24.1776 28.0206 23.8928 28.0767 23.5575 28.0767C23.245 28.0767 22.9744 28.0263 22.7457 27.9254C22.5185 27.8246 22.3395 27.6839 22.2088 27.5036C22.0795 27.3232 22.0064 27.1136 21.9893 26.875H22.5348C22.549 27.0398 22.6044 27.1761 22.701 27.2841C22.799 27.3906 22.9226 27.4702 23.0717 27.5227C23.2223 27.5739 23.3842 27.5994 23.5575 27.5994C23.7592 27.5994 23.9403 27.5668 24.1009 27.5014C24.2614 27.4347 24.3885 27.3423 24.4822 27.2244C24.576 27.1051 24.6229 26.9659 24.6229 26.8068C24.6229 26.6619 24.5824 26.544 24.5014 26.4531C24.4205 26.3622 24.3139 26.2884 24.1818 26.2315C24.0497 26.1747 23.907 26.125 23.7536 26.0824L23.2166 25.929C22.8757 25.831 22.6058 25.6911 22.407 25.5092C22.2081 25.3274 22.1087 25.0895 22.1087 24.7955C22.1087 24.5511 22.1747 24.3381 22.3068 24.1562C22.4403 23.973 22.6193 23.831 22.8438 23.7301C23.0696 23.6278 23.3217 23.5767 23.6001 23.5767C23.8814 23.5767 24.1314 23.6271 24.3501 23.728C24.5689 23.8274 24.7422 23.9638 24.87 24.1371C24.9993 24.3104 25.0675 24.5071 25.0746 24.7273H24.5632Z" fill="white"/>
</g>
<defs>
<clipPath id="clip0_2418_6559">
<rect width="33" height="33" fill="white"/>
</clipPath>
</defs>
</svg>
